<?xml version="1.0" encoding="UTF-8" standalone="no"?>
<!-- Created with Inkscape (http://www.inkscape.org/) -->

<svg
   width="120.52207mm"
   height="20.320021mm"
   viewBox="0 0 120.52207 20.320021"
   version="1.1"
   id="svg1"
   sodipodi:docname="typetutor-logo.svg"
   inkscape:version="1.4 (e7c3feb100, 2024-10-09)"
   xmlns:inkscape="http://www.inkscape.org/namespaces/inkscape"
   xmlns:sodipodi="http://sodipodi.sourceforge.net/DTD/sodipodi-0.dtd"
   xmlns="http://www.w3.org/2000/svg"
   xmlns:svg="http://www.w3.org/2000/svg">
  <sodipodi:namedview
     id="namedview1"
     pagecolor="#ffffff"
     bordercolor="#000000"
     borderopacity="0.25"
     inkscape:showpageshadow="2"
     inkscape:pageopacity="0.0"
     inkscape:pagecheckerboard="0"
     inkscape:deskcolor="#d1d1d1"
     inkscape:document-units="mm"
     inkscape:zoom="7.2291565"
     inkscape:cx="227.82741"
     inkscape:cy="38.455386"
     inkscape:window-width="1720"
     inkscape:window-height="1371"
     inkscape:window-x="20"
     inkscape:window-y="20"
     inkscape:window-maximized="0"
     inkscape:current-layer="svg1" />
  <defs
     id="defs1" />
  <g
     id="layer1"
     transform="translate(-1.7011512,-1.5024427)">
    <g
       id="g3"
       transform="translate(-47.396506,-68.208615)">
      <g
         id="g2"
         style="fill:#5fbcd3">
        <path
           d="m 49.097657,69.711058 h 11.379212 v 2.844803 h -4.199471 v 12.959657 h -2.98027 V 72.555861 h -4.199471 z m 21.945612,4.605871 h 2.844803 V 88.27001 q 0,0.767645 -0.496712,1.264357 -0.474134,0.496711 -1.241779,0.496711 H 65.48913 v -2.709336 h 4.944538 q 0.609601,0 0.609601,-0.677334 v -2.754491 h -0.406401 q -0.745067,1.94169 -3.206047,1.94169 -0.835379,0 -1.557869,-0.270933 -0.722489,-0.270934 -1.264356,-0.835379 -0.541868,-0.564445 -0.857957,-1.399823 -0.293511,-0.857957 -0.293511,-2.009425 v -6.999118 h 2.844803 v 6.412095 q 0,1.196624 0.564445,1.873958 0.564445,0.654756 1.693335,0.654756 1.286934,0 1.873957,-0.812801 0.609601,-0.835378 0.609601,-2.25778 z m 8.489242,15.714149 H 76.687708 V 74.316929 h 2.844803 v 1.625602 h 0.4064 q 0.451556,-0.92569 1.309513,-1.422402 0.857956,-0.519289 2.190046,-0.519289 0.993424,0 1.873958,0.383822 0.903112,0.383823 1.557868,1.12889 0.677334,0.72249 1.061157,1.783647 0.4064,1.061156 0.4064,2.415824 v 0.406401 q 0,1.377246 -0.383822,2.438402 -0.383823,1.061157 -1.038579,1.806224 -0.654757,0.72249 -1.557869,1.106313 -0.880534,0.361244 -1.919113,0.361244 -0.767645,0 -1.33209,-0.158044 -0.564445,-0.158045 -0.993423,-0.428978 -0.4064,-0.270934 -0.699912,-0.609601 -0.270934,-0.361245 -0.474134,-0.745067 h -0.4064 z m 2.98027,-6.908807 q 1.33209,0 2.144891,-0.812801 0.835378,-0.835378 0.835378,-2.25778 v -0.270933 q 0,-1.422402 -0.835378,-2.235202 -0.812801,-0.835379 -2.144891,-0.835379 -1.332091,0 -2.167469,0.857956 -0.812801,0.835379 -0.812801,2.212625 v 0.270933 q 0,1.377246 0.812801,2.235203 0.835378,0.835378 2.167469,0.835378 z m 11.085688,-2.280358 q 0.02258,0.496712 0.225778,0.92569 0.225778,0.406401 0.587023,0.72249 0.383822,0.293511 0.857956,0.474134 0.496712,0.158044 1.038579,0.158044 1.061157,0 1.625602,-0.361245 0.564445,-0.383822 0.8128,-0.903112 l 2.438403,1.354669 q -0.2032,0.428978 -0.56445,0.903112 -0.36124,0.451556 -0.948263,0.835378 -0.564445,0.383823 -1.399823,0.632179 -0.812801,0.248355 -1.919113,0.248355 -1.264357,0 -2.302936,-0.4064 -1.038579,-0.4064 -1.806224,-1.174046 -0.745068,-0.767645 -1.174046,-1.873957 -0.4064,-1.106312 -0.4064,-2.506136 v -0.135467 q 0,-1.286934 0.428978,-2.348091 0.451556,-1.061157 1.219201,-1.806224 0.767645,-0.745068 1.783646,-1.151468 1.038579,-0.428978 2.212625,-0.428978 1.444979,0 2.483558,0.519289 1.038579,0.496712 1.715917,1.286935 0.67733,0.767645 0.99342,1.715913 0.31609,0.92569 0.31609,1.806224 v 1.512712 z m 2.686758,-4.267204 q -1.083734,0 -1.761068,0.564445 -0.677334,0.541867 -0.880535,1.264357 h 5.283206 q -0.135467,-0.790223 -0.857957,-1.309512 -0.699911,-0.51929 -1.783646,-0.51929 z"
           id="text1"
           style="font-weight:bold;font-size:22.5778px;font-family:'Space Mono';-inkscape-font-specification:'Space Mono, Bold';stroke-width:0.264583"
           aria-label="Type" />
      </g>
      <path
         d="m 102.83464,75.341053 h 3.31894 v -4.605871 h 2.8448 v 4.605871 h 4.04143 v 2.709336 h -4.04143 v 5.102583 q 0,0.677334 0.6096,0.677334 h 3.02543 v 2.709336 h -4.74134 q -0.76764,0 -1.26436,-0.496711 -0.47413,-0.496712 -0.47413,-1.264357 v -6.728185 h -3.31894 z m 21.71984,0 h 2.8448 v 11.198589 h -2.8448 v -1.625601 h -0.4064 q -0.74507,1.941691 -3.20605,1.941691 -0.83538,0 -1.55787,-0.270934 -0.72249,-0.270934 -1.26436,-0.835379 -0.54186,-0.564445 -0.85795,-1.399823 -0.29351,-0.857957 -0.29351,-2.009425 v -6.999118 h 2.8448 v 6.412096 q 0,1.196623 0.56444,1.873957 0.56445,0.654756 1.69334,0.654756 1.28693,0 1.87396,-0.812801 0.6096,-0.835378 0.6096,-2.25778 z m 5.91537,0 h 3.31894 v -4.605871 h 2.8448 v 4.605871 h 4.04143 v 2.709336 h -4.04143 v 5.102583 q 0,0.677334 0.6096,0.677334 h 3.02542 v 2.709336 h -4.74133 q -0.76765,0 -1.26436,-0.496711 -0.47413,-0.496712 -0.47413,-1.264357 v -6.728185 h -3.31894 z m 25.1065,5.734762 q 0,1.399823 -0.47413,2.483558 -0.47414,1.061156 -1.28694,1.806224 -0.8128,0.722489 -1.87395,1.106312 -1.03858,0.383823 -2.19005,0.383823 -1.15147,0 -2.21263,-0.383823 -1.03857,-0.383823 -1.85138,-1.106312 -0.8128,-0.745068 -1.28693,-1.806224 -0.47413,-1.083735 -0.47413,-2.483558 v -0.270934 q 0,-1.377246 0.47413,-2.438403 0.47413,-1.083734 1.28693,-1.828801 0.81281,-0.745068 1.85138,-1.12889 1.06116,-0.383823 2.21263,-0.383823 1.15147,0 2.19005,0.383823 1.06115,0.383822 1.87395,1.12889 0.8128,0.745067 1.28694,1.828801 0.47413,1.061157 0.47413,2.438403 z m -5.82507,3.07058 q 0.6096,0 1.15147,-0.2032 0.54186,-0.2032 0.94826,-0.587023 0.4064,-0.383822 0.63218,-0.925689 0.24836,-0.564445 0.24836,-1.264357 V 80.71457 q 0,-0.699912 -0.24836,-1.241779 -0.22578,-0.564445 -0.63218,-0.948268 -0.4064,-0.383823 -0.94826,-0.587023 -0.54187,-0.2032 -1.15147,-0.2032 -0.6096,0 -1.15147,0.2032 -0.54187,0.2032 -0.94827,0.587023 -0.4064,0.383823 -0.65475,0.948268 -0.22578,0.541867 -0.22578,1.241779 v 0.451556 q 0,0.699912 0.22578,1.264357 0.24835,0.541867 0.65475,0.925689 0.4064,0.383823 0.94827,0.587023 0.54187,0.2032 1.15147,0.2032 z m 8.128,-8.805342 h 4.74134 v 1.625602 h 0.4064 q 0.31609,-0.92569 1.06115,-1.422402 0.76765,-0.519289 1.8288,-0.519289 1.67076,0 2.68676,1.061157 1.016,1.038578 1.016,3.183469 v 0.496712 l -2.93511,0.270934 v -0.316089 q 0,-0.92569 -0.47413,-1.467558 -0.47414,-0.564445 -1.42241,-0.564445 -0.94826,0 -1.49013,0.654757 -0.54187,0.654756 -0.54187,1.873957 v 3.612448 h 2.57387 v 2.709336 h -7.72161 v -2.709336 h 2.30294 v -5.779917 h -2.032 z"
         id="text3"
         style="font-weight:bold;font-size:22.5778px;font-family:'Space Mono';-inkscape-font-specification:'Space Mono, Bold';fill:#0044aa;stroke-width:0.264583"
         aria-label="tutor" />
    </g>
  </g>
</svg>
